# Blender v2.78 (sub 0) OBJ File: ''
# www.blender.org
mtllib semisphere_up.mtl
o Sphere
v -0.009556 1.980797 0.331339
v 0.027041 1.923891 0.147351
v 0.060770 1.831481 -0.022214
v 0.090333 1.707119 -0.170839
v 0.114595 1.555582 -0.292812
v 0.132624 1.382695 -0.383446
v 0.143725 1.195102 -0.439259
v 0.147474 1.000012 -0.458104
v 0.027042 1.980797 0.342441
v 0.098830 1.923891 0.169128
v 0.164991 1.831481 0.009401
v 0.222982 1.707119 -0.130600
v 0.270573 1.555582 -0.245497
v 0.305937 1.382695 -0.330872
v 0.327714 1.195102 -0.383446
v 0.335067 1.000012 -0.401198
v 0.060770 1.980797 0.360469
v 0.164991 1.923891 0.204491
v 0.261042 1.831481 0.060741
v 0.345231 1.707119 -0.065257
v 0.414324 1.555582 -0.168661
v 0.465664 1.382695 -0.245497
v 0.497279 1.195102 -0.292812
v 0.507954 1.000012 -0.308788
v 0.090333 1.980797 0.384731
v 0.222982 1.923891 0.252083
v 0.345231 1.831481 0.129834
v 0.452384 1.707119 0.022681
v 0.540322 1.555582 -0.065257
v 0.605665 1.382695 -0.130600
v 0.645904 1.195102 -0.170839
v 0.659491 1.000012 -0.184426
v 0.114596 1.980797 0.414295
v 0.270573 1.923891 0.310074
v 0.414324 1.831481 0.214023
v 0.540322 1.707119 0.129834
v 0.643726 1.555582 0.060741
v 0.720562 1.382695 0.009401
v 0.767877 1.195102 -0.022214
v 0.783853 1.000012 -0.032889
v 0.132624 1.980797 0.448023
v 0.305937 1.923891 0.376235
v 0.465664 1.831481 0.310074
v 0.605665 1.707119 0.252083
v 0.720562 1.555582 0.204492
v 0.805937 1.382695 0.169128
v 0.858511 1.195102 0.147351
v 0.876263 1.000012 0.139998
v 0.143726 1.980797 0.484621
v 0.327714 1.923891 0.448023
v 0.497279 1.831481 0.414295
v 0.645904 1.707119 0.384732
v 0.767877 1.555582 0.360470
v 0.858511 1.382695 0.342441
v 0.914323 1.195102 0.331340
v 0.933169 1.000012 0.327591
v 0.147474 1.980797 0.522681
v 0.335067 1.923891 0.522681
v 0.507954 1.831481 0.522681
v 0.659491 1.707119 0.522681
v 0.783853 1.555582 0.522681
v 0.876263 1.382695 0.522681
v 0.933169 1.195102 0.522681
v 0.952384 1.000012 0.522681
v 0.143726 1.980797 0.560742
v 0.327714 1.923891 0.597339
v 0.497279 1.831481 0.631068
v 0.645904 1.707119 0.660631
v 0.767877 1.555582 0.684893
v 0.858511 1.382695 0.702921
v 0.914323 1.195102 0.714023
v 0.933169 1.000012 0.717772
v 0.132624 1.980797 0.597339
v 0.305937 1.923891 0.669128
v 0.465664 1.831481 0.735289
v 0.605665 1.707119 0.793279
v 0.720561 1.555582 0.840871
v 0.805937 1.382695 0.876235
v 0.858511 1.195102 0.898012
v 0.876263 1.000012 0.905365
v 0.114595 1.980797 0.631068
v 0.270573 1.923891 0.735289
v 0.414324 1.831481 0.831340
v 0.540322 1.707119 0.915529
v 0.643725 1.555582 0.984621
v 0.720561 1.382695 1.035961
v 0.767877 1.195102 1.067576
v 0.783853 1.000012 1.078252
v 0.090333 1.980797 0.660631
v 0.222982 1.923891 0.793280
v 0.345231 1.831481 0.915529
v 0.452384 1.707119 1.022681
v 0.540321 1.555582 1.110619
v 0.605665 1.382695 1.175963
v 0.645903 1.195102 1.216201
v 0.659490 1.000012 1.229788
v 0.060770 1.980797 0.684893
v 0.164991 1.923891 0.840871
v 0.261042 1.831481 0.984621
v 0.345231 1.707119 1.110619
v 0.414323 1.555582 1.214023
v 0.465664 1.382695 1.290859
v 0.497279 1.195102 1.338174
v 0.507954 1.000012 1.354151
v 0.027041 1.980797 0.702922
v 0.098830 1.923891 0.876235
v 0.164991 1.831481 1.035961
v 0.222982 1.707119 1.175963
v 0.270573 1.555582 1.290859
v 0.305937 1.382695 1.376235
v 0.327714 1.195102 1.428809
v 0.335067 1.000012 1.446561
v -0.009556 1.980797 0.714023
v 0.027041 1.923891 0.898012
v 0.060770 1.831481 1.067577
v 0.090333 1.707119 1.216201
v 0.114595 1.555582 1.338174
v 0.132624 1.382695 1.428809
v 0.143725 1.195102 1.484621
v 0.147474 1.000012 1.503467
v -0.047616 1.980797 0.717772
v -0.047616 1.923891 0.905365
v -0.047616 1.831481 1.078252
v -0.047616 1.707119 1.229788
v -0.047617 1.555582 1.354151
v -0.047616 1.382695 1.446561
v -0.047617 1.195102 1.503466
v -0.047617 1.000012 1.522681
v -0.085677 1.980797 0.714023
v -0.122274 1.923891 0.898012
v -0.156003 1.831481 1.067577
v -0.185566 1.707119 1.216201
v -0.209828 1.555582 1.338174
v -0.227856 1.382695 1.428809
v -0.238958 1.195102 1.484621
v -0.242707 1.000012 1.503467
v -0.122274 1.980797 0.702921
v -0.194063 1.923891 0.876235
v -0.260224 1.831481 1.035961
v -0.318214 1.707119 1.175963
v -0.365806 1.555582 1.290859
v -0.401170 1.382695 1.376235
v -0.422947 1.195102 1.428808
v -0.430300 1.000012 1.446561
v -0.047617 2.000012 0.522682
v -0.156003 1.980797 0.684893
v -0.260224 1.923891 0.840871
v -0.356275 1.831481 0.984621
v -0.440464 1.707119 1.110619
v -0.509556 1.555582 1.214023
v -0.560896 1.382695 1.290859
v -0.592511 1.195102 1.338174
v -0.603187 1.000012 1.354151
v -0.185566 1.980797 0.660631
v -0.318214 1.923891 0.793279
v -0.440464 1.831481 0.915529
v -0.547616 1.707119 1.022681
v -0.635554 1.555582 1.110619
v -0.700898 1.382695 1.175963
v -0.741136 1.195102 1.216201
v -0.754723 1.000012 1.229788
v -0.209828 1.980797 0.631068
v -0.365806 1.923891 0.735289
v -0.509556 1.831481 0.831340
v -0.635554 1.707119 0.915529
v -0.738958 1.555582 0.984621
v -0.815794 1.382695 1.035961
v -0.863109 1.195102 1.067576
v -0.879086 1.000012 1.078251
v -0.227857 1.980797 0.597339
v -0.401170 1.923891 0.669128
v -0.560896 1.831481 0.735289
v -0.700898 1.707119 0.793279
v -0.815794 1.555582 0.840871
v -0.901170 1.382695 0.876235
v -0.953744 1.195102 0.898011
v -0.971496 1.000012 0.905365
v -0.238958 1.980797 0.560742
v -0.422947 1.923891 0.597339
v -0.592512 1.831481 0.631068
v -0.741136 1.707119 0.660631
v -0.863109 1.555582 0.684893
v -0.953744 1.382695 0.702921
v -1.009556 1.195102 0.714023
v -1.028402 1.000012 0.717771
v -0.242707 1.980797 0.522681
v -0.430300 1.923891 0.522681
v -0.603187 1.831481 0.522681
v -0.754723 1.707119 0.522681
v -0.879086 1.555582 0.522681
v -0.971496 1.382695 0.522681
v -1.028401 1.195102 0.522681
v -1.047616 1.000012 0.522681
v -0.238958 1.980797 0.484621
v -0.422947 1.923891 0.448023
v -0.592511 1.831481 0.414295
v -0.741136 1.707119 0.384732
v -0.863109 1.555582 0.360470
v -0.953744 1.382695 0.342441
v -1.009556 1.195102 0.331339
v -1.028401 1.000012 0.327591
v -0.227857 1.980797 0.448023
v -0.401170 1.923891 0.376235
v -0.560896 1.831481 0.310074
v -0.700898 1.707119 0.252083
v -0.815794 1.555582 0.204492
v -0.901170 1.382695 0.169128
v -0.953743 1.195102 0.147351
v -0.971496 1.000012 0.139998
v -0.209828 1.980797 0.414295
v -0.365806 1.923891 0.310074
v -0.509556 1.831481 0.214023
v -0.635554 1.707119 0.129834
v -0.738958 1.555582 0.060742
v -0.815794 1.382695 0.009401
v -0.863109 1.195102 -0.022214
v -0.879086 1.000012 -0.032889
v -0.185566 1.980797 0.384732
v -0.318214 1.923891 0.252083
v -0.440464 1.831481 0.129834
v -0.547616 1.707119 0.022681
v -0.635554 1.555582 -0.065256
v -0.700898 1.382695 -0.130600
v -0.741136 1.195102 -0.170838
v -0.754723 1.000012 -0.184425
v -0.156003 1.980797 0.360470
v -0.260224 1.923891 0.204492
v -0.356275 1.831481 0.060742
v -0.440464 1.707119 -0.065256
v -0.509556 1.555582 -0.168660
v -0.560896 1.382695 -0.245496
v -0.592511 1.195102 -0.292811
v -0.603186 1.000012 -0.308788
v -0.122274 1.980797 0.342441
v -0.194063 1.923891 0.169128
v -0.260224 1.831481 0.009401
v -0.318214 1.707119 -0.130600
v -0.365806 1.555582 -0.245496
v -0.401170 1.382695 -0.330872
v -0.422946 1.195102 -0.383446
v -0.430299 1.000012 -0.401198
v -0.085677 1.980797 0.331339
v -0.122274 1.923891 0.147351
v -0.156003 1.831481 -0.022214
v -0.185566 1.707119 -0.170839
v -0.209828 1.555582 -0.292811
v -0.227856 1.382695 -0.383446
v -0.238958 1.195102 -0.439258
v -0.242706 1.000012 -0.458104
v -0.047616 1.980797 0.327591
v -0.047616 1.923891 0.139998
v -0.047616 1.831481 -0.032889
v -0.047616 1.707119 -0.184425
v -0.047616 1.555582 -0.308788
v -0.047616 1.382695 -0.401198
v -0.047616 1.195102 -0.458103
v -0.047616 1.000012 -0.477318
vn 0.0286 0.9565 -0.2902
vn 0.0464 0.8810 -0.4709
vn 0.0624 0.7715 -0.6332
vn 0.0759 0.6326 -0.7708
vn 0.0865 0.4696 -0.8786
vn 0.0938 0.2890 -0.9527
vn 0.0975 0.0976 -0.9904
vn 0.0097 0.9951 -0.0980
vn 0.2889 0.0975 -0.9524
vn 0.0286 0.9951 -0.0942
vn 0.0846 0.9565 -0.2790
vn 0.1374 0.8810 -0.4528
vn 0.1847 0.7715 -0.6088
vn 0.2248 0.6326 -0.7412
vn 0.2563 0.4696 -0.8448
vn 0.2779 0.2890 -0.9161
vn 0.3651 0.6326 -0.6831
vn 0.4162 0.4696 -0.7786
vn 0.4513 0.2890 -0.8443
vn 0.4691 0.0976 -0.8777
vn 0.0464 0.9951 -0.0869
vn 0.1374 0.9565 -0.2571
vn 0.2230 0.8810 -0.4173
vn 0.2999 0.7715 -0.5611
vn 0.1850 0.9565 -0.2254
vn 0.3002 0.8810 -0.3658
vn 0.4036 0.7715 -0.4918
vn 0.4913 0.6326 -0.5987
vn 0.5601 0.4696 -0.6825
vn 0.6073 0.2890 -0.7400
vn 0.6314 0.0976 -0.7693
vn 0.0625 0.9951 -0.0761
vn 0.6825 0.4696 -0.5601
vn 0.7400 0.2890 -0.6073
vn 0.7693 0.0976 -0.6314
vn 0.0761 0.9951 -0.0625
vn 0.2254 0.9565 -0.1850
vn 0.3658 0.8810 -0.3002
vn 0.4918 0.7715 -0.4036
vn 0.5987 0.6326 -0.4913
vn 0.2571 0.9566 -0.1374
vn 0.4173 0.8810 -0.2230
vn 0.5611 0.7715 -0.2999
vn 0.6831 0.6326 -0.3651
vn 0.7786 0.4696 -0.4162
vn 0.8443 0.2890 -0.4513
vn 0.8777 0.0976 -0.4691
vn 0.0869 0.9951 -0.0464
vn 0.8448 0.4696 -0.2563
vn 0.9161 0.2890 -0.2779
vn 0.9524 0.0976 -0.2889
vn 0.0942 0.9951 -0.0286
vn 0.2790 0.9565 -0.0846
vn 0.4528 0.8810 -0.1374
vn 0.6088 0.7715 -0.1847
vn 0.7412 0.6326 -0.2248
vn 0.4709 0.8810 -0.0464
vn 0.6332 0.7715 -0.0624
vn 0.7708 0.6326 -0.0759
vn 0.8786 0.4696 -0.0865
vn 0.9527 0.2890 -0.0938
vn 0.9904 0.0976 -0.0975
vn 0.0980 0.9951 -0.0096
vn 0.2902 0.9565 -0.0286
vn 0.9527 0.2890 0.0938
vn 0.9904 0.0976 0.0975
vn 0.0980 0.9951 0.0096
vn 0.2902 0.9565 0.0286
vn 0.4709 0.8810 0.0464
vn 0.6332 0.7715 0.0624
vn 0.7708 0.6326 0.0759
vn 0.8786 0.4696 0.0865
vn 0.4528 0.8810 0.1374
vn 0.6088 0.7715 0.1847
vn 0.7412 0.6326 0.2248
vn 0.8448 0.4696 0.2563
vn 0.9161 0.2890 0.2779
vn 0.9524 0.0976 0.2889
vn 0.0942 0.9951 0.0286
vn 0.2790 0.9565 0.0846
vn 0.8443 0.2890 0.4513
vn 0.8777 0.0976 0.4691
vn 0.0869 0.9951 0.0464
vn 0.2571 0.9565 0.1374
vn 0.4173 0.8810 0.2230
vn 0.5611 0.7715 0.2999
vn 0.6831 0.6326 0.3651
vn 0.7786 0.4696 0.4162
vn 0.4918 0.7715 0.4036
vn 0.5987 0.6326 0.4913
vn 0.6825 0.4696 0.5601
vn 0.7400 0.2890 0.6073
vn 0.7693 0.0976 0.6314
vn 0.0761 0.9951 0.0625
vn 0.2254 0.9565 0.1850
vn 0.3658 0.8810 0.3002
vn 0.6314 0.0976 0.7693
vn 0.0625 0.9951 0.0761
vn 0.1850 0.9565 0.2254
vn 0.3002 0.8810 0.3658
vn 0.4036 0.7715 0.4918
vn 0.4913 0.6326 0.5987
vn 0.5601 0.4696 0.6825
vn 0.6073 0.2890 0.7400
vn 0.3651 0.6326 0.6831
vn 0.4162 0.4696 0.7786
vn 0.4513 0.2890 0.8443
vn 0.4691 0.0976 0.8777
vn 0.0464 0.9951 0.0869
vn 0.1374 0.9565 0.2571
vn 0.2230 0.8810 0.4173
vn 0.2999 0.7715 0.5611
vn 0.0286 0.9951 0.0942
vn 0.0846 0.9565 0.2790
vn 0.1374 0.8810 0.4528
vn 0.1847 0.7715 0.6088
vn 0.2248 0.6326 0.7412
vn 0.2563 0.4696 0.8448
vn 0.2779 0.2890 0.9161
vn 0.2889 0.0976 0.9524
vn 0.0759 0.6326 0.7708
vn 0.0865 0.4696 0.8786
vn 0.0938 0.2890 0.9527
vn 0.0975 0.0976 0.9904
vn 0.0097 0.9951 0.0980
vn 0.0286 0.9565 0.2902
vn 0.0464 0.8810 0.4709
vn 0.0624 0.7715 0.6332
vn -0.0286 0.9565 0.2902
vn -0.0464 0.8810 0.4709
vn -0.0624 0.7715 0.6332
vn -0.0759 0.6326 0.7708
vn -0.0865 0.4696 0.8786
vn -0.0938 0.2890 0.9527
vn -0.0976 0.0976 0.9904
vn -0.0097 0.9951 0.0980
vn -0.2563 0.4696 0.8448
vn -0.2779 0.2890 0.9161
vn -0.2889 0.0976 0.9524
vn -0.0286 0.9951 0.0942
vn -0.0846 0.9565 0.2790
vn -0.1374 0.8810 0.4528
vn -0.1847 0.7715 0.6088
vn -0.2248 0.6326 0.7412
vn -0.1374 0.9565 0.2571
vn -0.2230 0.8810 0.4173
vn -0.2999 0.7715 0.5611
vn -0.3651 0.6326 0.6831
vn -0.4162 0.4696 0.7786
vn -0.4513 0.2890 0.8443
vn -0.4691 0.0976 0.8777
vn -0.0464 0.9951 0.0869
vn -0.5601 0.4696 0.6825
vn -0.6073 0.2890 0.7400
vn -0.6314 0.0976 0.7693
vn -0.0625 0.9951 0.0761
vn -0.1850 0.9565 0.2254
vn -0.3002 0.8810 0.3658
vn -0.4036 0.7715 0.4918
vn -0.4913 0.6326 0.5987
vn -0.3658 0.8810 0.3002
vn -0.4918 0.7715 0.4036
vn -0.5987 0.6326 0.4913
vn -0.6825 0.4696 0.5601
vn -0.7400 0.2890 0.6073
vn -0.7693 0.0976 0.6314
vn -0.0761 0.9951 0.0625
vn -0.2254 0.9565 0.1850
vn -0.8443 0.2890 0.4513
vn -0.8777 0.0976 0.4691
vn -0.0869 0.9951 0.0464
vn -0.2571 0.9565 0.1374
vn -0.4173 0.8810 0.2230
vn -0.5611 0.7715 0.2999
vn -0.6831 0.6326 0.3651
vn -0.7786 0.4696 0.4162
vn -0.6088 0.7715 0.1847
vn -0.7412 0.6326 0.2248
vn -0.8448 0.4696 0.2563
vn -0.9161 0.2890 0.2779
vn -0.9524 0.0976 0.2889
vn -0.0942 0.9951 0.0286
vn -0.2790 0.9565 0.0846
vn -0.4528 0.8810 0.1374
vn -0.9904 0.0976 0.0975
vn -0.0980 0.9951 0.0096
vn -0.2902 0.9565 0.0286
vn -0.4709 0.8810 0.0464
vn -0.6332 0.7715 0.0624
vn -0.7708 0.6326 0.0759
vn -0.8786 0.4696 0.0865
vn -0.9527 0.2890 0.0938
vn -0.6332 0.7715 -0.0624
vn -0.7708 0.6326 -0.0759
vn -0.8786 0.4696 -0.0865
vn -0.9527 0.2890 -0.0938
vn -0.9904 0.0976 -0.0975
vn -0.0980 0.9951 -0.0096
vn -0.2902 0.9565 -0.0286
vn -0.4709 0.8810 -0.0464
vn -0.9524 0.0976 -0.2889
vn -0.0942 0.9951 -0.0286
vn -0.2790 0.9565 -0.0846
vn -0.4528 0.8810 -0.1374
vn -0.6088 0.7715 -0.1847
vn -0.7412 0.6326 -0.2248
vn -0.8448 0.4696 -0.2563
vn -0.9161 0.2890 -0.2779
vn -0.6831 0.6326 -0.3651
vn -0.7786 0.4696 -0.4162
vn -0.8443 0.2890 -0.4513
vn -0.8777 0.0976 -0.4691
vn -0.0869 0.9951 -0.0464
vn -0.2571 0.9565 -0.1374
vn -0.4173 0.8810 -0.2230
vn -0.5611 0.7715 -0.2999
vn -0.0761 0.9951 -0.0625
vn -0.2254 0.9565 -0.1850
vn -0.3658 0.8810 -0.3002
vn -0.4918 0.7715 -0.4036
vn -0.5987 0.6326 -0.4913
vn -0.6825 0.4696 -0.5601
vn -0.7400 0.2890 -0.6073
vn -0.7693 0.0976 -0.6314
vn -0.4913 0.6326 -0.5987
vn -0.5601 0.4696 -0.6825
vn -0.6073 0.2890 -0.7400
vn -0.6314 0.0976 -0.7693
vn -0.0625 0.9951 -0.0761
vn -0.1850 0.9565 -0.2254
vn -0.3002 0.8810 -0.3658
vn -0.4036 0.7715 -0.4918
vn -0.1374 0.9565 -0.2571
vn -0.2230 0.8810 -0.4173
vn -0.2999 0.7715 -0.5611
vn -0.3651 0.6326 -0.6831
vn -0.4162 0.4696 -0.7786
vn -0.4513 0.2890 -0.8443
vn -0.4691 0.0976 -0.8777
vn -0.0464 0.9951 -0.0869
vn -0.2563 0.4696 -0.8448
vn -0.2779 0.2890 -0.9161
vn -0.2889 0.0976 -0.9524
vn -0.0286 0.9951 -0.0942
vn -0.0846 0.9565 -0.2790
vn -0.1374 0.8810 -0.4528
vn -0.1847 0.7715 -0.6088
vn -0.2248 0.6326 -0.7412
vn -0.0464 0.8810 -0.4709
vn -0.0624 0.7715 -0.6332
vn -0.0759 0.6326 -0.7708
vn -0.0865 0.4696 -0.8786
vn -0.0938 0.2890 -0.9527
vn -0.0975 0.0976 -0.9904
vn -0.0097 0.9951 -0.0980
vn -0.0286 0.9565 -0.2902
usemtl None
s off
f 251//1 250//1 1//1 2//1
f 252//2 251//2 2//2 3//2
f 253//3 252//3 3//3 4//3
f 254//4 253//4 4//4 5//4
f 255//5 254//5 5//5 6//5
f 256//6 255//6 6//6 7//6
f 257//7 256//7 7//7 8//7
f 250//8 145//8 1//8
f 8//9 7//9 15//9 16//9
f 1//10 145//10 9//10
f 2//11 1//11 9//11 10//11
f 3//12 2//12 10//12 11//12
f 4//13 3//13 11//13 12//13
f 5//14 4//14 12//14 13//14
f 6//15 5//15 13//15 14//15
f 7//16 6//16 14//16 15//16
f 13//17 12//17 20//17 21//17
f 14//18 13//18 21//18 22//18
f 15//19 14//19 22//19 23//19
f 16//20 15//20 23//20 24//20
f 9//21 145//21 17//21
f 10//22 9//22 17//22 18//22
f 11//23 10//23 18//23 19//23
f 12//24 11//24 19//24 20//24
f 18//25 17//25 25//25 26//25
f 19//26 18//26 26//26 27//26
f 20//27 19//27 27//27 28//27
f 21//28 20//28 28//28 29//28
f 22//29 21//29 29//29 30//29
f 23//30 22//30 30//30 31//30
f 24//31 23//31 31//31 32//31
f 17//32 145//32 25//32
f 30//33 29//33 37//33 38//33
f 31//34 30//34 38//34 39//34
f 32//35 31//35 39//35 40//35
f 25//36 145//36 33//36
f 26//37 25//37 33//37 34//37
f 27//38 26//38 34//38 35//38
f 28//39 27//39 35//39 36//39
f 29//40 28//40 36//40 37//40
f 34//41 33//41 41//41 42//41
f 35//42 34//42 42//42 43//42
f 36//43 35//43 43//43 44//43
f 37//44 36//44 44//44 45//44
f 38//45 37//45 45//45 46//45
f 39//46 38//46 46//46 47//46
f 40//47 39//47 47//47 48//47
f 33//48 145//48 41//48
f 46//49 45//49 53//49 54//49
f 47//50 46//50 54//50 55//50
f 48//51 47//51 55//51 56//51
f 41//52 145//52 49//52
f 42//53 41//53 49//53 50//53
f 43//54 42//54 50//54 51//54
f 44//55 43//55 51//55 52//55
f 45//56 44//56 52//56 53//56
f 51//57 50//57 58//57 59//57
f 52//58 51//58 59//58 60//58
f 53//59 52//59 60//59 61//59
f 54//60 53//60 61//60 62//60
f 55//61 54//61 62//61 63//61
f 56//62 55//62 63//62 64//62
f 49//63 145//63 57//63
f 50//64 49//64 57//64 58//64
f 63//65 62//65 70//65 71//65
f 64//66 63//66 71//66 72//66
f 57//67 145//67 65//67
f 58//68 57//68 65//68 66//68
f 59//69 58//69 66//69 67//69
f 60//70 59//70 67//70 68//70
f 61//71 60//71 68//71 69//71
f 62//72 61//72 69//72 70//72
f 67//73 66//73 74//73 75//73
f 68//74 67//74 75//74 76//74
f 69//75 68//75 76//75 77//75
f 70//76 69//76 77//76 78//76
f 71//77 70//77 78//77 79//77
f 72//78 71//78 79//78 80//78
f 65//79 145//79 73//79
f 66//80 65//80 73//80 74//80
f 79//81 78//81 86//81 87//81
f 80//82 79//82 87//82 88//82
f 73//83 145//83 81//83
f 74//84 73//84 81//84 82//84
f 75//85 74//85 82//85 83//85
f 76//86 75//86 83//86 84//86
f 77//87 76//87 84//87 85//87
f 78//88 77//88 85//88 86//88
f 84//89 83//89 91//89 92//89
f 85//90 84//90 92//90 93//90
f 86//91 85//91 93//91 94//91
f 87//92 86//92 94//92 95//92
f 88//93 87//93 95//93 96//93
f 81//94 145//94 89//94
f 82//95 81//95 89//95 90//95
f 83//96 82//96 90//96 91//96
f 96//97 95//97 103//97 104//97
f 89//98 145//98 97//98
f 90//99 89//99 97//99 98//99
f 91//100 90//100 98//100 99//100
f 92//101 91//101 99//101 100//101
f 93//102 92//102 100//102 101//102
f 94//103 93//103 101//103 102//103
f 95//104 94//104 102//104 103//104
f 101//105 100//105 108//105 109//105
f 102//106 101//106 109//106 110//106
f 103//107 102//107 110//107 111//107
f 104//108 103//108 111//108 112//108
f 97//109 145//109 105//109
f 98//110 97//110 105//110 106//110
f 99//111 98//111 106//111 107//111
f 100//112 99//112 107//112 108//112
f 105//113 145//113 113//113
f 106//114 105//114 113//114 114//114
f 107//115 106//115 114//115 115//115
f 108//116 107//116 115//116 116//116
f 109//117 108//117 116//117 117//117
f 110//118 109//118 117//118 118//118
f 111//119 110//119 118//119 119//119
f 112//120 111//120 119//120 120//120
f 117//121 116//121 124//121 125//121
f 118//122 117//122 125//122 126//122
f 119//123 118//123 126//123 127//123
f 120//124 119//124 127//124 128//124
f 113//125 145//125 121//125
f 114//126 113//126 121//126 122//126
f 115//127 114//127 122//127 123//127
f 116//128 115//128 123//128 124//128
f 122//129 121//129 129//129 130//129
f 123//130 122//130 130//130 131//130
f 124//131 123//131 131//131 132//131
f 125//132 124//132 132//132 133//132
f 126//133 125//133 133//133 134//133
f 127//134 126//134 134//134 135//134
f 128//135 127//135 135//135 136//135
f 121//136 145//136 129//136
f 134//137 133//137 141//137 142//137
f 135//138 134//138 142//138 143//138
f 136//139 135//139 143//139 144//139
f 129//140 145//140 137//140
f 130//141 129//141 137//141 138//141
f 131//142 130//142 138//142 139//142
f 132//143 131//143 139//143 140//143
f 133//144 132//144 140//144 141//144
f 138//145 137//145 146//145 147//145
f 139//146 138//146 147//146 148//146
f 140//147 139//147 148//147 149//147
f 141//148 140//148 149//148 150//148
f 142//149 141//149 150//149 151//149
f 143//150 142//150 151//150 152//150
f 144//151 143//151 152//151 153//151
f 137//152 145//152 146//152
f 151//153 150//153 158//153 159//153
f 152//154 151//154 159//154 160//154
f 153//155 152//155 160//155 161//155
f 146//156 145//156 154//156
f 147//157 146//157 154//157 155//157
f 148//158 147//158 155//158 156//158
f 149//159 148//159 156//159 157//159
f 150//160 149//160 157//160 158//160
f 156//161 155//161 163//161 164//161
f 157//162 156//162 164//162 165//162
f 158//163 157//163 165//163 166//163
f 159//164 158//164 166//164 167//164
f 160//165 159//165 167//165 168//165
f 161//166 160//166 168//166 169//166
f 154//167 145//167 162//167
f 155//168 154//168 162//168 163//168
f 168//169 167//169 175//169 176//169
f 169//170 168//170 176//170 177//170
f 162//171 145//171 170//171
f 163//172 162//172 170//172 171//172
f 164//173 163//173 171//173 172//173
f 165//174 164//174 172//174 173//174
f 166//175 165//175 173//175 174//175
f 167//176 166//176 174//176 175//176
f 173//177 172//177 180//177 181//177
f 174//178 173//178 181//178 182//178
f 175//179 174//179 182//179 183//179
f 176//180 175//180 183//180 184//180
f 177//181 176//181 184//181 185//181
f 170//182 145//182 178//182
f 171//183 170//183 178//183 179//183
f 172//184 171//184 179//184 180//184
f 185//185 184//185 192//185 193//185
f 178//186 145//186 186//186
f 179//187 178//187 186//187 187//187
f 180//188 179//188 187//188 188//188
f 181//189 180//189 188//189 189//189
f 182//190 181//190 189//190 190//190
f 183//191 182//191 190//191 191//191
f 184//192 183//192 191//192 192//192
f 189//193 188//193 196//193 197//193
f 190//194 189//194 197//194 198//194
f 191//195 190//195 198//195 199//195
f 192//196 191//196 199//196 200//196
f 193//197 192//197 200//197 201//197
f 186//198 145//198 194//198
f 187//199 186//199 194//199 195//199
f 188//200 187//200 195//200 196//200
f 201//201 200//201 208//201 209//201
f 194//202 145//202 202//202
f 195//203 194//203 202//203 203//203
f 196//204 195//204 203//204 204//204
f 197//205 196//205 204//205 205//205
f 198//206 197//206 205//206 206//206
f 199//207 198//207 206//207 207//207
f 200//208 199//208 207//208 208//208
f 206//209 205//209 213//209 214//209
f 207//210 206//210 214//210 215//210
f 208//211 207//211 215//211 216//211
f 209//212 208//212 216//212 217//212
f 202//213 145//213 210//213
f 203//214 202//214 210//214 211//214
f 204//215 203//215 211//215 212//215
f 205//216 204//216 212//216 213//216
f 210//217 145//217 218//217
f 211//218 210//218 218//218 219//218
f 212//219 211//219 219//219 220//219
f 213//220 212//220 220//220 221//220
f 214//221 213//221 221//221 222//221
f 215//222 214//222 222//222 223//222
f 216//223 215//223 223//223 224//223
f 217//224 216//224 224//224 225//224
f 222//225 221//225 229//225 230//225
f 223//226 222//226 230//226 231//226
f 224//227 223//227 231//227 232//227
f 225//228 224//228 232//228 233//228
f 218//229 145//229 226//229
f 219//230 218//230 226//230 227//230
f 220//231 219//231 227//231 228//231
f 221//232 220//232 228//232 229//232
f 227//233 226//233 234//233 235//233
f 228//234 227//234 235//234 236//234
f 229//235 228//235 236//235 237//235
f 230//236 229//236 237//236 238//236
f 231//237 230//237 238//237 239//237
f 232//238 231//238 239//238 240//238
f 233//239 232//239 240//239 241//239
f 226//240 145//240 234//240
f 239//241 238//241 246//241 247//241
f 240//242 239//242 247//242 248//242
f 241//243 240//243 248//243 249//243
f 234//244 145//244 242//244
f 235//245 234//245 242//245 243//245
f 236//246 235//246 243//246 244//246
f 237//247 236//247 244//247 245//247
f 238//248 237//248 245//248 246//248
f 244//249 243//249 251//249 252//249
f 245//250 244//250 252//250 253//250
f 246//251 245//251 253//251 254//251
f 247//252 246//252 254//252 255//252
f 248//253 247//253 255//253 256//253
f 249//254 248//254 256//254 257//254
f 242//255 145//255 250//255
f 243//256 242//256 250//256 251//256
